<svg id="svg" xmlns="http://www.w3.org/2000/svg" xmlns:xlink="http://www.w3.org/1999/xlink" width="400"
  height="358.2089552238806" viewBox="0, 0, 400,358.2089552238806" version="1.1">
  <g id="svgg">
    <path id="path0"
      d="M6.523 8.330 C 1.284 8.829,1.667 7.756,1.377 22.744 C 1.068 38.717,1.388 42.329,3.185 43.119 C 4.525 43.709,65.171 43.940,67.935 43.366 C 72.970 42.321,73.272 41.423,73.417 27.061 C 73.570 11.903,73.150 10.069,69.176 8.549 C 67.621 7.954,12.497 7.762,6.523 8.330 M117.204 8.224 C 114.075 8.740,112.251 10.079,111.397 12.487 C 110.495 15.032,110.750 38.191,111.700 39.964 C 113.723 43.739,111.847 43.548,146.953 43.548 L 177.240 43.548 178.913 42.724 C 182.221 41.095,182.425 40.146,182.474 26.132 C 182.524 11.923,182.206 10.527,178.528 8.826 C 176.815 8.034,121.643 7.493,117.204 8.224 M226.344 8.226 C 223.033 8.610,221.679 9.430,220.400 11.828 C 219.897 12.771,219.408 25.254,219.535 33.921 C 219.617 39.500,220.341 41.264,223.118 42.652 L 224.910 43.548 255.556 43.548 C 286.037 43.548,286.210 43.544,287.846 42.787 C 291.333 41.175,291.924 38.182,291.660 23.477 C 291.448 11.701,290.949 10.069,287.097 8.570 C 285.723 8.035,230.677 7.724,226.344 8.226 M335.484 8.232 C 329.172 8.896,328.727 10.072,328.632 26.344 C 328.560 38.906,328.659 39.779,330.383 41.683 C 332.129 43.612,330.796 43.540,366.756 43.647 L 400.000 43.745 400.000 25.815 L 400.000 7.885 368.907 7.936 C 351.806 7.964,336.765 8.097,335.484 8.232 M132.616 226.365 C 132.124 226.448,130.349 226.698,128.674 226.921 C 116.702 228.511,103.658 237.265,92.410 251.254 C 90.746 253.324,84.893 260.986,79.403 268.280 C 65.725 286.453,61.662 291.063,56.157 294.657 C 46.710 300.823,37.485 294.424,17.828 268.068 C 9.095 256.359,4.995 253.649,3.487 258.591 C 2.687 261.216,2.872 304.695,3.693 307.051 C 5.359 311.826,18.582 322.722,29.112 327.997 C 57.051 341.993,79.897 331.223,107.884 290.860 C 117.391 277.148,128.003 265.669,133.273 263.394 C 141.160 259.991,150.714 267.041,166.227 287.715 C 181.636 308.248,191.160 317.997,202.601 324.947 C 220.978 336.110,237.319 336.501,254.242 326.183 C 264.755 319.773,271.793 312.089,288.598 288.673 C 296.477 277.694,305.989 267.139,310.432 264.443 C 319.051 259.214,328.973 265.806,345.341 287.634 C 363.211 311.465,373.580 321.429,387.460 328.109 C 390.766 329.700,398.574 332.616,399.527 332.616 C 399.913 332.616,400.000 328.999,400.000 312.903 C 400.000 300.862,399.869 293.190,399.664 293.190 C 397.344 293.190,387.031 282.574,379.120 272.043 C 351.364 235.095,332.502 223.074,308.244 226.874 C 291.022 229.572,280.676 238.092,259.318 267.163 C 238.373 295.671,232.385 300.228,222.579 295.124 C 216.215 291.812,209.705 284.970,197.377 268.638 C 192.445 262.104,189.141 257.972,186.767 255.367 C 185.864 254.376,183.779 252.006,182.132 250.101 C 173.456 240.056,159.277 230.430,149.581 228.001 C 144.684 226.774,135.474 225.886,132.616 226.365 "
      stroke="none" fill="#818cf8" fill-rule="evenodd">
    </path>
  </g>
</svg>
