<!doctype html>
<svg viewBox="86.5957 194.4426 398.731 219.9453" width="398.731" height="219.9453">
  <path id="path0"
    d="M 5.394 114.394 C 0.155 114.893 0.538 113.82 0.248 128.808 C -0.061 144.781 0.259 148.393 2.056 149.183 C 3.396 149.773 64.042 150.004 66.806 149.43 C 71.841 148.385 72.143 147.487 72.288 133.125 C 72.441 117.967 72.021 116.133 68.047 114.613 C 66.492 114.018 11.368 113.826 5.394 114.394 M 116.075 114.288 C 112.946 114.804 111.122 116.143 110.268 118.551 C 109.366 121.096 109.621 144.255 110.571 146.028 C 112.594 149.803 110.718 149.612 145.824 149.612 L 176.111 149.612 L 177.784 148.788 C 181.092 147.159 181.296 146.21 181.345 132.196 C 181.395 117.987 181.077 116.591 177.399 114.89 C 175.686 114.098 120.514 113.557 116.075 114.288 M 225.215 114.29 C 221.904 114.674 220.55 115.494 219.271 117.892 C 218.768 118.835 218.279 131.318 218.406 139.985 C 218.488 145.564 218.254 149.551 223.781 149.612 C 235.208 149.738 284.706 149.436 286.509 149.473 C 292.069 149.588 290.795 144.246 290.531 129.541 C 290.319 117.765 289.82 116.133 285.968 114.634 C 284.594 114.099 229.548 113.788 225.215 114.29 M 334.355 114.296 C 328.043 114.96 327.598 116.136 327.503 132.408 C 327.431 144.97 327.541 149.028 333.098 149.029 C 355.981 149.033 398.871 149.809 398.871 149.809 L 398.871 114.26 C 398.871 114.26 335.636 114.161 334.355 114.296 M 131.487 226.429 C 130.995 226.512 129.22 226.762 127.545 226.985 C 115.573 228.575 102.529 237.329 91.281 251.318 C 89.617 253.388 67.87 287.243 55.028 294.721 C 45.279 300.398 37.537 293.565 16.699 268.132 C 7.227 256.571 2.365 254.721 2.358 254.901 C 2.252 257.644 2.689 304.623 2.564 307.115 C 2.509 308.211 17.453 322.786 27.983 328.061 C 55.922 342.057 78.768 331.287 106.755 290.924 C 116.262 277.212 126.874 265.733 132.144 263.458 C 140.031 260.055 149.585 267.105 165.098 287.779 C 180.507 308.312 190.031 318.061 201.472 325.011 C 219.849 336.174 236.104 336.423 253.113 326.247 C 273.997 313.752 296.425 272.734 309.303 264.507 C 317.798 259.08 327.844 265.87 344.212 287.698 C 362.082 311.529 371.961 318.185 386.331 328.173 C 392.176 332.236 398.321 333.63 398.398 332.68 C 398.57 330.545 398.8 328.996 398.871 312.967 C 398.924 300.929 398.471 296.242 398.535 293.254 C 398.542 292.927 385.902 282.638 377.991 272.107 C 350.235 235.159 331.373 223.138 307.115 226.938 C 289.893 229.636 279.547 238.156 258.189 267.227 C 237.244 295.735 231.159 300.475 221.45 295.188 C 209.394 288.624 182.65 252.07 181.003 250.165 C 172.327 240.12 158.148 230.494 148.452 228.065 C 143.555 226.838 134.345 225.95 131.487 226.429"
    stroke="none" fill="#818cf8" fill-rule="evenodd"
    transform="matrix(0.9999999999999999, 0, 0, 1, 86.45132216786797, 80.49944091718115)"></path>
</svg>
