<?xml version="1.0" encoding="utf-8"?>
<svg viewBox="81.0017 194.4426 398.731 219.9453" width="398.731" height="219.9453" xmlns="http://www.w3.org/2000/svg">
  <path id="path0"
    d="M -0.2 114.394 C -5.439 114.893 -5.056 113.82 -5.346 128.808 C -5.655 144.781 -5.335 148.393 -3.538 149.183 C -2.198 149.773 58.448 150.004 61.212 149.43 C 66.247 148.385 66.549 147.487 66.694 133.125 C 66.847 117.967 66.427 116.133 62.453 114.613 C 60.898 114.018 5.774 113.826 -0.2 114.394 M 110.481 114.288 C 107.352 114.804 105.528 116.143 104.674 118.551 C 103.772 121.096 104.027 144.255 104.977 146.028 C 107 149.803 105.124 149.612 140.23 149.612 L 170.517 149.612 L 172.19 148.788 C 175.498 147.159 175.702 146.21 175.751 132.196 C 175.801 117.987 175.483 116.591 171.805 114.89 C 170.092 114.098 114.92 113.557 110.481 114.288 M 219.621 114.29 C 216.31 114.674 214.956 115.494 213.677 117.892 C 213.174 118.835 212.685 131.318 212.812 139.985 C 212.894 145.564 212.66 149.551 218.187 149.612 C 229.614 149.738 279.112 149.436 280.915 149.473 C 286.475 149.588 285.201 144.246 284.937 129.541 C 284.725 117.765 284.226 116.133 280.374 114.634 C 279 114.099 223.954 113.788 219.621 114.29 M 328.761 114.296 C 322.449 114.96 322.004 116.136 321.909 132.408 C 321.837 144.97 321.947 149.028 327.504 149.029 C 350.387 149.033 393.277 149.809 393.277 149.809 L 393.277 114.26 C 393.277 114.26 330.042 114.161 328.761 114.296 M 125.893 226.429 C 125.401 226.512 123.626 226.762 121.951 226.985 C 109.979 228.575 96.935 237.329 85.687 251.318 C 84.023 253.388 62.276 287.243 49.434 294.721 C 39.685 300.398 29.812 293.565 8.974 268.132 C -0.498 256.571 -5.36 254.721 -5.367 254.901 C -5.473 257.644 -5.036 304.623 -5.161 307.115 C -5.216 308.211 11.859 322.786 22.389 328.061 C 50.328 342.057 73.174 331.287 101.161 290.924 C 110.668 277.212 121.28 265.733 126.55 263.458 C 134.437 260.055 143.991 267.105 159.504 287.779 C 174.913 308.312 184.437 318.061 195.878 325.011 C 214.255 336.174 230.51 336.423 247.519 326.247 C 268.403 313.752 290.831 272.734 303.709 264.507 C 312.204 259.08 322.25 265.87 338.618 287.698 C 356.488 311.529 366.367 318.185 380.737 328.173 C 386.582 332.236 392.727 333.63 392.804 332.68 C 392.976 330.545 393.206 328.996 393.277 312.967 C 393.33 300.929 392.877 296.242 392.941 293.254 C 392.948 292.927 380.308 282.638 372.397 272.107 C 344.641 235.159 325.779 223.138 301.521 226.938 C 284.299 229.636 273.953 238.156 252.595 267.227 C 231.65 295.735 225.565 300.475 215.856 295.188 C 203.8 288.624 177.056 252.07 175.409 250.165 C 166.733 240.12 152.554 230.494 142.858 228.065 C 137.961 226.838 128.751 225.95 125.893 226.429"
    stroke="none" fill="currentColor" fill-rule="evenodd"
    transform="matrix(1, 0, 0, 0.9999999999999999, 86.451322167868, 80.49944091718106)" />
</svg>
