<svg id="svg" xmlns="http://www.w3.org/2000/svg" xmlns:xlink="http://www.w3.org/1999/xlink" width="400" height="400" viewBox="0, 0, 400,400"><g id="svgg"><path id="path0" d="M116.073 74.061 C 0.747 113.730,-4.510 116.437,16.337 125.396 C 29.617 131.103,77.507 149.137,110.798 160.968 C 149.025 174.552,150.174 175.181,150.489 182.677 C 150.629 186.008,151.263 202.165,151.898 218.582 C 153.155 251.115,155.214 256.856,162.876 249.199 C 166.551 245.525,169.113 92.025,165.826 72.419 C 163.440 58.185,162.097 58.230,116.073 74.061 M150.406 100.000 C 150.639 126.188,150.050 156.671,149.297 157.429 C 148.823 157.905,72.469 130.793,43.192 119.753 C 38.902 118.135,39.791 117.504,53.521 112.417 C 77.308 103.606,145.300 80.810,147.887 80.779 C 149.603 80.759,150.281 85.928,150.406 100.000 M241.961 85.135 C 172.139 111.206,187.083 212.207,260.762 212.207 C 319.473 212.207,348.515 145.810,308.510 103.042 C 292.373 85.790,262.055 77.632,241.961 85.135 M273.616 99.611 C 310.311 107.584,323.569 159.382,295.273 184.226 C 247.499 226.172,183.478 161.594,225.447 113.794 C 237.312 100.280,254.035 95.356,273.616 99.611 M232.861 223.228 C 187.224 237.837,154.063 278.882,151.852 323.498 C 151.133 337.996,143.829 337.122,263.065 336.806 C 384.636 336.484,376.618 337.603,374.716 321.225 C 366.634 251.613,296.197 202.953,232.861 223.228 M296.931 240.251 C 326.808 252.174,358.819 291.850,358.704 316.816 C 358.676 323.014,355.475 323.197,257.277 322.604 L 168.075 322.066 168.584 315.493 C 172.855 260.321,243.477 218.920,296.931 240.251 " stroke="none" fill="#ffffff" fill-rule="evenodd"></path></g></svg>