<svg id="svg" xmlns="http://www.w3.org/2000/svg" xmlns:xlink="http://www.w3.org/1999/xlink" width="400" height="400" viewBox="0, 0, 400,400"><g id="svgg"><path id="path0" d="M172.291 13.736 C 168.879 15.388,168.800 16.497,168.800 62.650 L 168.800 106.824 164.940 108.195 C 160.409 109.805,155.497 114.283,153.821 118.332 C 153.168 119.909,151.805 123.000,150.791 125.200 C 148.084 131.076,146.067 135.797,143.957 141.200 C 140.491 150.076,139.900 150.400,127.184 150.400 C 114.510 150.400,114.559 150.422,117.527 146.098 C 124.028 136.629,125.946 121.007,121.786 111.420 C 105.302 73.428,50.650 84.502,50.919 125.779 C 50.947 130.058,51.335 134.018,51.781 134.579 C 52.227 135.141,53.054 137.040,53.619 138.800 C 54.715 142.216,57.793 147.531,59.168 148.380 C 61.471 149.803,55.571 153.600,51.057 153.600 C 50.639 153.600,48.330 154.500,45.925 155.600 C 43.520 156.700,41.368 157.600,41.143 157.600 C 40.917 157.600,40.298 157.967,39.766 158.415 C 39.235 158.863,37.987 159.853,36.993 160.615 C 30.371 165.692,28.639 167.306,25.267 171.533 C 14.211 185.395,12.574 193.927,12.945 235.749 C 13.230 267.726,13.209 267.602,19.486 274.270 C 24.603 279.705,37.719 282.753,41.717 279.435 C 44.639 277.010,44.743 278.478,44.974 325.231 L 45.200 370.800 47.397 374.465 C 55.386 387.793,71.793 390.721,84.476 381.081 C 87.438 378.830,88.354 378.754,90.207 380.607 C 100.097 390.497,119.689 387.806,126.858 375.574 C 131.302 367.990,131.200 370.297,131.200 277.657 L 131.200 192.192 140.600 191.608 C 162.016 190.279,166.235 187.760,172.781 172.400 C 173.718 170.200,175.507 166.240,176.757 163.600 C 178.006 160.960,179.919 156.820,181.007 154.400 C 184.355 146.961,186.156 143.026,188.881 137.205 C 193.650 127.017,191.977 117.766,184.215 111.406 L 180.770 108.583 180.985 90.978 C 181.164 76.303,181.400 73.266,182.400 72.728 C 183.060 72.373,186.300 71.317,189.600 70.380 C 192.900 69.443,196.140 68.455,196.800 68.184 C 197.460 67.913,198.360 67.636,198.800 67.568 C 199.240 67.501,200.140 67.244,200.800 66.997 C 202.213 66.470,210.743 63.945,219.200 61.550 C 238.281 56.148,242.333 54.547,242.928 52.174 C 243.691 49.137,242.306 46.306,239.200 44.554 C 235.641 42.546,224.077 36.798,218.600 34.314 C 216.290 33.266,214.400 32.137,214.400 31.805 C 214.400 31.472,214.001 31.200,213.514 31.200 C 212.710 31.200,199.691 24.929,196.800 23.149 C 194.071 21.469,175.566 12.804,174.815 12.854 C 174.367 12.884,173.231 13.281,172.291 13.736 M194.244 34.800 C 200.807 38.100,206.587 40.800,207.089 40.800 C 207.590 40.800,208.000 41.102,208.000 41.472 C 208.000 41.842,209.440 42.619,211.200 43.200 C 212.960 43.781,214.400 44.530,214.400 44.864 C 214.400 45.199,215.476 45.709,216.791 45.998 C 221.650 47.065,220.528 49.493,214.400 51.174 C 203.837 54.072,201.128 54.875,200.400 55.326 C 199.960 55.599,197.440 56.261,194.800 56.798 C 192.160 57.334,189.640 58.042,189.200 58.370 C 188.006 59.260,181.744 60.677,181.238 60.172 C 180.452 59.385,180.760 28.800,181.555 28.800 C 181.971 28.800,187.681 31.500,194.244 34.800 M316.000 45.499 C 297.238 51.685,288.189 75.494,298.828 90.683 C 300.818 93.524,300.293 94.400,296.600 94.400 C 287.261 94.402,274.368 102.421,268.518 111.869 C 264.238 118.781,263.271 123.457,263.028 138.407 C 262.809 151.859,262.738 152.393,261.200 152.224 C 260.320 152.127,257.139 151.633,254.132 151.126 C 230.034 147.064,210.383 175.304,223.110 195.707 L 225.538 199.600 222.969 200.132 C 205.220 203.805,195.072 211.472,190.274 224.834 C 188.142 230.770,187.007 266.940,188.749 273.410 C 191.005 281.788,197.712 286.671,206.834 286.577 L 212.703 286.516 212.951 313.058 C 213.223 342.087,213.315 342.664,218.653 348.811 C 224.591 355.649,238.606 357.396,245.841 352.200 C 247.832 350.770,249.698 349.600,249.987 349.600 C 250.275 349.600,252.197 350.770,254.256 352.200 C 261.692 357.364,275.410 355.648,281.347 348.811 C 286.663 342.689,286.763 342.072,287.200 312.800 C 287.546 289.618,287.761 286.036,288.791 286.264 C 304.146 289.663,311.987 280.721,311.996 259.800 C 312.000 249.435,312.090 248.800,313.558 248.800 C 315.001 248.800,319.595 246.632,323.755 243.987 C 325.293 243.009,325.702 243.044,327.060 244.273 C 335.389 251.811,349.693 250.414,357.132 241.335 C 362.047 235.338,362.382 233.035,362.391 205.189 L 362.400 180.379 368.674 180.379 C 378.132 180.379,384.231 175.504,386.369 166.235 C 387.395 161.786,387.402 133.216,386.379 126.140 C 383.966 109.454,368.171 94.400,353.075 94.400 C 350.519 94.400,349.600 94.082,349.600 93.200 C 349.600 92.540,349.898 92.000,350.263 92.000 C 354.676 92.000,356.604 69.096,352.800 61.852 C 346.022 48.941,328.788 41.283,316.000 45.499 M331.468 56.872 C 346.628 60.954,348.142 84.581,333.715 91.941 C 312.415 102.808,294.442 71.715,314.579 58.837 C 319.931 55.414,324.206 54.917,331.468 56.872 M98.000 101.878 C 122.310 113.199,114.345 150.311,87.589 150.388 C 60.483 150.467,52.803 114.508,77.200 101.745 C 81.955 99.257,92.517 99.325,98.000 101.878 M360.400 108.031 C 373.186 114.524,376.000 121.578,376.000 147.131 C 376.000 165.949,375.272 168.186,369.004 168.645 C 363.002 169.083,362.862 168.596,362.400 145.776 L 362.000 126.000 356.400 126.000 L 350.800 126.000 350.594 178.637 C 350.410 225.871,350.254 231.480,349.075 233.278 C 345.906 238.115,338.510 239.105,334.213 235.266 L 331.600 232.933 331.200 201.066 L 330.800 169.200 325.000 168.965 L 319.200 168.730 319.200 199.847 C 319.200 230.928,319.198 230.966,317.373 233.682 C 314.511 237.938,312.346 237.738,311.719 233.160 C 310.670 225.511,303.533 211.200,300.767 211.200 C 300.309 211.200,299.933 194.530,299.807 168.600 L 299.600 126.000 293.800 125.765 L 288.000 125.530 288.000 145.313 C 288.000 167.959,287.767 168.800,281.489 168.800 C 275.258 168.800,274.399 165.941,274.404 145.214 C 274.410 121.481,276.858 114.843,287.718 109.104 C 294.302 105.626,292.685 105.760,326.400 105.887 L 356.400 106.000 360.400 108.031 M177.515 120.721 C 179.304 122.392,180.000 123.767,180.000 125.628 C 180.000 128.809,178.390 134.400,177.473 134.400 C 177.103 134.400,176.800 134.752,176.800 135.182 C 176.800 135.613,175.587 138.583,174.103 141.782 C 172.620 144.982,169.167 152.640,166.430 158.800 C 157.236 179.491,157.944 178.762,146.267 179.523 C 128.691 180.667,120.407 182.376,119.703 185.005 C 119.438 185.992,119.217 227.044,119.211 276.232 C 119.200 362.793,119.151 365.759,117.667 368.632 C 113.894 375.933,103.904 377.592,97.575 371.968 C 93.152 368.037,93.231 368.951,92.800 317.200 L 92.400 269.200 87.200 269.200 L 82.000 269.200 81.600 318.000 C 81.163 371.293,81.303 369.807,76.463 372.723 C 70.018 376.605,65.477 376.331,60.012 371.733 C 55.090 367.591,55.200 369.679,55.200 280.626 L 55.200 200.000 50.000 200.000 L 44.800 200.000 44.780 203.000 C 44.768 204.650,44.777 217.808,44.800 232.240 C 44.828 250.459,44.546 259.461,43.879 261.687 C 41.117 270.908,28.896 271.522,25.180 262.628 C 23.699 259.084,23.456 208.281,24.883 200.448 C 27.897 183.899,38.087 170.734,52.230 165.118 L 58.000 162.827 98.360 162.579 C 120.558 162.442,139.098 162.035,139.560 161.675 C 140.022 161.315,141.380 160.787,142.577 160.501 C 146.420 159.583,154.400 149.771,154.400 145.965 C 154.400 145.716,155.151 143.822,156.069 141.756 C 158.315 136.700,160.318 132.204,161.894 128.679 C 162.612 127.073,163.200 125.375,163.200 124.907 C 163.200 119.359,172.993 116.496,177.515 120.721 M258.843 164.382 C 267.832 168.883,271.771 181.590,266.805 190.064 C 253.940 212.017,221.879 194.845,233.361 172.151 C 237.965 163.052,249.292 159.599,258.843 164.382 M288.000 191.200 C 288.000 199.634,287.753 202.397,287.000 202.387 C 286.450 202.380,283.409 201.745,280.243 200.977 L 274.485 199.580 276.886 195.722 C 278.310 193.434,279.678 189.708,280.248 186.567 C 281.078 181.983,281.476 181.196,283.204 180.715 C 288.171 179.333,288.000 178.960,288.000 191.200 M284.463 213.995 C 290.287 216.658,295.519 221.628,297.982 226.836 C 300.981 233.174,301.156 270.680,298.200 273.341 C 295.531 275.744,293.757 276.122,291.246 274.824 C 287.781 273.032,287.627 272.133,287.200 251.200 L 286.800 231.600 281.417 231.364 L 276.034 231.128 275.817 283.764 C 275.572 343.106,275.922 339.849,269.451 343.060 L 265.703 344.920 262.108 343.330 C 255.374 340.352,255.415 340.596,255.286 301.763 L 255.200 275.927 249.952 276.163 L 244.705 276.400 244.251 306.800 C 243.715 342.752,243.371 344.029,234.240 343.988 C 224.009 343.942,224.072 344.318,224.033 282.997 L 224.000 231.194 218.600 231.397 L 213.200 231.600 212.800 251.200 C 212.372 272.189,212.226 273.028,208.696 274.854 C 206.254 276.117,204.479 275.659,201.400 272.973 C 198.922 270.811,199.334 232.263,201.895 226.765 C 203.735 222.813,212.018 214.400,214.068 214.400 C 214.590 214.400,216.048 213.862,217.309 213.205 C 219.223 212.207,224.580 212.009,249.851 212.005 L 280.103 212.000 284.463 213.995 " stroke="none" fill="#ffffff" fill-rule="evenodd"></path></g></svg>
